# xmcd CD database file
#
# Track frame offsets:
#	150
#	14940
#	39272
#	54098
#	79309
#	94126
#	110086
#	137089
#	151298
#	176101
#	192509
#	214865
#	225272
#	248470
#
# Disc length: 3494 seconds
#
# Revision: 0
# Processed by: cddbd v1.5.1PL0 Copyright (c) Steve Scherf et al.
# Submitted via: CDex 1.51
#
DISCID=b80da40e
DTITLE=Russ Wilson and His Nouveau - Passe Orchestra - Doin' the Uptown Lowdown
DYEAR=2005
DGENRE=Jazz
TTITLE0=Doin' The Uptown Lowdown
TTITLE1=I Couldn't Tell Them What To Do
TTITLE2=Crazy Rhythm
TTITLE3=To Whom it May Concern
TTITLE4=Cheerful Little Earful
TTITLE5=My Sin
TTITLE6=Blues in My Heart
TTITLE7=I've Found A New Baby
TTITLE8=You're the One I Care For
TTITLE9=St Louis Blues
TTITLE10=Blue Again
TTITLE11=Two Buck Tim From Timbuctoo
TTITLE12=Blue Shadows
TTITLE13=Charleston
EXTD=YEAR: 2005
EXTT0=
EXTT1=
EXTT2=
EXTT3=
EXTT4=
EXTT5=
EXTT6=
EXTT7=
EXTT8=
EXTT9=
EXTT10=
EXTT11=
EXTT12=
EXTT13=
PLAYORDER=
